<svg data-v-0dd9719b="" version="1.0" xmlns="http://www.w3.org/2000/svg" xmlns:xlink="http://www.w3.org/1999/xlink" width="100%" height="100%" viewBox="0 0 340.000000 250.000000" preserveAspectRatio="xMidYMid meet" color-interpolation-filters="sRGB" style="margin: auto;"> <rect data-v-0dd9719b="" x="0" y="0" width="100%" height="100%" fill="#ffffff" fill-opacity="1" class="background"></rect> <rect data-v-0dd9719b="" x="0" y="0" width="100%" height="100%" fill="url(#watermark)" fill-opacity="1" class="watermarklayer"></rect> <g data-v-0dd9719b="" fill="#fb663c" class="icon-text-wrapper icon-svg-group iconsvg" transform="translate(56.334999084472656,94.35554695129395)"><g class="iconsvg-imagesvg" transform="translate(0,0)"><g><rect fill="#fb663c" fill-opacity="0" stroke-width="2" x="0" y="0" width="60" height="61.28890568658897" class="image-rect"></rect> <svg filter="url(#colors6958780180)" x="0" y="0" width="60" height="61.28890568658897" filtersec="colorsf7614549491" class="image-svg-svg primary" style="overflow: visible;"><svg xmlns="http://www.w3.org/2000/svg" viewBox="-0.002582525834441185 -0.002592325210571289 91.41352081298828 93.37734985351562"><title>Pt4Zc5.tif</title><path d="M46.3 46.77c2.44 2.31 4.65 4.77 7 7.08 1.41 1.38 2.82 2.79 4.15 4.26s2.76 2.91 4.17 4.34c1.81 1.79 3.59 3.55 5.38 5.37s3.72 3.81 5.58 5.7q2.46 2.51 4.93 5a.72.72 0 0 1 0 1.11 18.67 18.67 0 0 1-3.15 3.07c-.82.65-1.67 1.27-2.49 1.92-.61.48-.85.47-1.37-.06-2.18-2.22-4.37-4.42-6.53-6.65-3.65-3.8-7.27-7.59-10.97-11.36-2.16-2.23-4.36-4.42-6.55-6.62A1.73 1.73 0 0 1 46 58.6V48.44v-.63c0-.21 0-.36-.18-.43s-.28.11-.4.22c-1.57 1.56-3.16 3.12-4.72 4.69-2.2 2.19-4.38 4.41-6.57 6.61-2.43 2.44-4.87 4.89-7.32 7.32l-9.25 9.16c-1.23 1.22-2.45 2.43-3.67 3.66-.22.22-.45.39-.71.12-1.7-1.65-3.65-3.09-4.53-5.43a2.08 2.08 0 0 1 .52-2.51c3-3 6-6.06 9-9.1 2.83-2.85 5.72-5.65 8.48-8.57 2.15-2.27 4.44-4.41 6.52-6.74v-.23a15.41 15.41 0 0 0-2.15 0c-.75.1-1.49.06-2.23.09-2.24.09-4.48.14-6.72.12a1.77 1.77 0 0 0-1.25.7c-2.15 2.14-4.31 4.27-6.42 6.46-1.1 1.14-2.2 2.28-3.33 3.39-2.25 2.21-4.44 4.47-6.66 6.7-.59.59-.84.54-1.16-.21a31.25 31.25 0 0 1-1.85-5.2c-.15-.63-.26-1.21-.4-1.82-.27-1.12.45-1.8 1.11-2.47 1.89-1.92 3.68-3.91 5.61-5.78.47-.44.84-1 1.3-1.46a1.82 1.82 0 0 1 1.44-.58h10.17c.13 0 .3 0 .38-.12s-.07-.3-.18-.41c-1.15-1.23-2.29-2.47-3.46-3.67-1.72-1.75-3.5-3.44-5.18-5.22-1.92-2-3.92-4-5.88-6-.68-.7-1.32-1.44-2-2.17a.61.61 0 0 1-.16-.7 30.64 30.64 0 0 1 3.18-6.6c.53-.78.81-.8 1.63-.33a17.48 17.48 0 0 1 3.31 3c1.56 1.57 3.06 3.21 4.6 4.8 2.18 2.28 4.35 4.56 6.57 6.8 1.91 1.92 3.75 3.91 5.66 5.82 1.45 1.45 2.9 2.91 4.29 4.42a.69.69 0 0 0 .59.27h10.8a.35.35 0 0 0 .36-.17c.09-.18-.06-.3-.17-.41-1.25-1.33-2.49-2.66-3.75-4s-2.46-2.56-3.7-3.82c-2.2-2.23-4.43-4.42-6.61-6.67-2.38-2.46-4.87-4.83-7.19-7.35-1.83-2-3.78-3.88-5.65-5.84-1.24-1.29-2.45-2.63-3.68-3.94a.82.82 0 0 1 0-1.28 33 33 0 0 1 3.93-3.36c.49-.4 1-.81 1.47-1.19a.64.64 0 0 1 1 .11c1.86 1.93 3.78 3.82 5.68 5.71 2.52 2.54 5.1 5 7.57 7.61s4.94 5.09 7.39 7.65c1.47 1.54 2.9 3.1 4.38 4.62a1.42 1.42 0 0 1 .35 1.09c0 3 0 6-.16 9a5.25 5.25 0 0 0 0 1.19c.05.38.27.49.56.15 2.37-2.67 5-5.13 7.48-7.67 3.69-3.74 7.44-7.42 11.2-11.09s7.42-7.44 11.11-11.17c.42-.43.88-.83 1.31-1.26a.59.59 0 0 1 .91-.06 14.51 14.51 0 0 1 4.54 5.94 1.28 1.28 0 0 1-.27 1.53q-3.7 3.69-7.37 7.4c-1.94 1.95-3.87 3.92-5.81 5.88S66 38.71 64.1 40.6c-1.69 1.74-3.31 3.55-5 5.25-.1.09-.22.2-.16.35s.21.17.35.17h.91c2.94 0 5.89 0 8.83-.13a2.12 2.12 0 0 1 1.73.74q4.16 4.35 8.35 8.68c2.64 2.73 5.27 5.48 7.92 8.2a1.37 1.37 0 0 1 .34 1.41A12.84 12.84 0 0 1 86 68.49c-.62 1.05-1.25 2.08-1.88 3.12-.38.62-.54.63-1.07.14-4.33-4-8.51-8.19-12.62-12.43-2-2.06-3.94-4.18-5.94-6.24s-3.7-3.93-5.49-5.92a1.79 1.79 0 0 0-1.47-.62H47.08a1.08 1.08 0 0 0-.78.23z" fill="#000000"></path><path d="M46.26 29.21c.16-1.57-.18-3.57-.07-5.58a3 3 0 0 0-.92-2.32c-2.9-2.92-5.73-5.9-8.6-8.85-1.25-1.28-2.59-2.49-3.78-3.83s-2.71-2.82-4.06-4.24c-.37-.38-.27-.71.29-.95a46.26 46.26 0 0 1 5.42-2.09c.77-.23 1.56-.26 2.32-.51a1.09 1.09 0 0 1 1.18.4c1.73 1.86 3.51 3.69 5.26 5.53 1 1 1.9 2.06 2.85 3.09a1.18 1.18 0 0 1 .27.91c0 1.54 0 3.08-.06 4.62a32.94 32.94 0 0 1-.18 5.16c0 .22-.09.5.16.64s.49-.09.67-.26c1-1 2.07-2 3.08-3.06 2.77-2.81 5.51-5.64 8.27-8.47 1.51-1.53 3.06-3 4.51-4.6a2 2 0 0 1 2.27-.52 15.1 15.1 0 0 1 4.25 2.26q.81.56 1.61 1.14c.53.4.54.72.09 1.22-2.86 3.17-5.88 6.2-8.89 9.24-1.77 1.79-3.56 3.56-5.36 5.33-3.14 3.09-6.23 6.24-9.36 9.35-.28.28-.52.85-1 .7s-.22-.74-.24-1.14c0-.91.02-1.82.02-3.17zM45.72 65.86v4.84a1.23 1.23 0 0 0 .56 1.19 23.12 23.12 0 0 1 2.54 2.31c3.18 3.15 6.18 6.4 9.26 9.66 1.5 1.6 3.08 3.12 4.63 4.67.56.57.54.85-.15 1.22a17.44 17.44 0 0 1-5.37 2c-1 .18-2 .45-3.08.53a1.26 1.26 0 0 1-1-.45q-3.47-3.72-7-7.41a1.88 1.88 0 0 1-.54-1.42c0-3.18.09-6.36.14-9.53v-.63c0-.21.06-.47-.17-.57s-.38.13-.52.27c-2.8 2.81-5.59 5.63-8.4 8.44-1.66 1.65-3.35 3.26-5 4.9q-1.62 1.57-3.28 3.23a.94.94 0 0 1-1.07.3 15.2 15.2 0 0 1-5.91-3.51c-.78-.83-.77-.93 0-1.75 3-3.09 6-6.19 9.05-9.28 2.3-2.35 4.66-4.65 6.93-7 2-2.12 4.11-4.14 6.14-6.24l1.4-1.37c.16-.16.34-.37.6-.25s.21.39.22.62v5.26zM79.76 46.54l-8.47-.29c-.25 0-.55 0-.65-.28s.13-.42.3-.59C74.34 42 77.69 38.61 81 35.19c2-2.07 4.09-4.09 6.13-6.15.36-.37.64-.36.84.12a38.68 38.68 0 0 1 2.28 6.08 7.92 7.92 0 0 1 0 3 1.65 1.65 0 0 1-.52.89c-2.36 2.35-4.73 4.7-7.08 7.06a1.13 1.13 0 0 1-.87.36zM4.37 46.81A29 29 0 0 1 1 46.72.87.87 0 0 1 .22 46a6.66 6.66 0 0 1-.06-3.17c.25-1.29.41-2.59.61-3.83 0-.24 0-.56.32-.64s.47.16.65.34L9 45.85a.5.5 0 0 1 .2.49c0 .19-.19.22-.37.25a24.61 24.61 0 0 1-4.46.22z" fill="#000000"></path><path d="M46.27 7.09c.21-2-.1-4.19.07-6.38 0-.51.19-.74.7-.71l6.9.39c.27 0 .53 0 .64.33s-.11.43-.25.6c-2.17 2.58-4.68 4.83-6.89 7.37a2.75 2.75 0 0 1-.56.52c-.34.2-.6.13-.61-.32s0-1.07 0-1.8zM45.72 88.54c-.06 1.22.07 2.62-.11 4-.08.59-.34.81-.91.81a27.17 27.17 0 0 1-6.11-.43c-.28-.06-.6-.1-.72-.37s.18-.49.36-.69q3.27-3.6 6.55-7.18c.17-.19.32-.52.67-.37s.26.47.26.74c.01 1.12.01 2.22.01 3.49zM87.25 46.1h2.82c.81 0 1 .27 1.12 1a15 15 0 0 1 0 5.13 12.58 12.58 0 0 1-.36 1.77c-.16.56-.54.42-.85.12-.72-.7-1.45-1.39-2.11-2.14-1.46-1.66-3.1-3.15-4.61-4.77-.19-.21-.44-.4-.34-.72s.47-.19.72-.24a26.12 26.12 0 0 1 3.61-.15z" fill="#000000"></path></svg></svg> <defs><filter id="colors6958780180"><feColorMatrix type="matrix" values="0 0 0 0 0.98046875  0 0 0 0 0.3984375  0 0 0 0 0.234375  0 0 0 1 0" class="icon-fecolormatrix"></feColorMatrix></filter> <filter id="colorsf7614549491"><feColorMatrix type="matrix" values="0 0 0 0 0.99609375  0 0 0 0 0.99609375  0 0 0 0 0.99609375  0 0 0 1 0" class="icon-fecolormatrix"></feColorMatrix></filter> <filter id="colorsb4077684994"><feColorMatrix type="matrix" values="0 0 0 0 0  0 0 0 0 0  0 0 0 0 0  0 0 0 1 0" class="icon-fecolormatrix"></feColorMatrix></filter></defs></g></g> <g transform="translate(67,3.053201675415039)"><g data-gra="path-name" fill-rule="" class="tp-name iconsvg-namesvg" transform="translate(0,0)"><g transform="scale(1)"><g><path d="M17.5-35.95L24.03-35.95 24.03-32.98 38.34-32.98 38.34-23.76 31.81-23.76 31.81-26.91 9.9-26.91 9.9-23.76 3.38-23.76 3.38-32.98 17.5-32.98 17.5-35.95ZM18.18 3.6L18.18-15.93 4.18-15.93 4.18-22 37.62-22 37.62-15.93 24.7-15.93 24.7 3.6 18.18 3.6ZM80.05-11.07L74.61-6.3 81.31-0.58 77.26 4.23 69.84-2.11 63.18 3.73 59.89-0.18 59.89 3.55 53.37 3.55 53.37-33.44 64.39-33.44 64.39-36 70.92-36 70.92-33.44 80.73-33.44 80.73-22.81 74.25-22.81 74.25-27.36 70.65-27.36 70.65-21.29 80.05-21.29 80.05-11.07ZM51.52-35.95L51.52-27.4 45-27.4 45-35.95 51.52-35.95ZM59.89-21.29L64.39-21.29 64.39-27.36 59.89-27.36 59.89-21.29ZM51.52-25.88L51.52-17.32 45-17.32 45-25.88 51.52-25.88ZM51.52-15.66L51.52 3.69 45 3.69 45-15.66 51.52-15.66ZM73.53-15.21L59.89-15.21 59.89-1.84 64.98-6.3 60.39-10.21 64.44-14.98 69.75-10.44 73.53-13.77 73.53-15.21ZM123.07-11.92L118.8-6.93 109.75-15.57 109.75-2.48 120.82-2.48 120.82 3.6 103.23 3.6 103.23-28.93 86.44-28.93 86.44-35.01 109.75-35.01 109.75-22.68 118.21-31.5 122.76-26.82 115.24-19.13 123.07-11.92ZM149.26-18.86L149.26-17.73 163.35-17.73 163.35-13.54 128.65-13.54 128.65-17.73 142.74-17.73 142.74-18.86 129.73-18.86 129.73-22.95 142.74-22.95 142.74-23.98 130.09-23.98 130.09-35.23 161.86-35.23 161.86-23.98 149.26-23.98 149.26-22.95 162.27-22.95 162.27-18.86 149.26-18.86ZM143.01-27.36L143.01-31.81 136.39-31.81 136.39-27.36 143.01-27.36ZM148.9-31.81L148.9-27.36 155.56-27.36 155.56-31.81 148.9-31.81ZM142.06-28.44L137.38-28.44 137.38-30.78 142.06-30.78 142.06-28.44ZM149.8-30.78L154.62-30.78 154.62-28.44 149.8-28.44 149.8-30.78ZM129.69-12.46L136.21-12.46 136.21-8.19 129.69-8.19 129.69-12.46ZM138.37-12.46L144.9-12.46 144.9-8.19 138.37-8.19 138.37-12.46ZM147.1-12.46L153.63-12.46 153.63-8.19 147.1-8.19 147.1-12.46ZM155.79-12.46L162.31-12.46 162.31-8.19 155.79-8.19 155.79-12.46ZM162.27-1.93L149.26-1.93 149.26-0.94 163.71-0.94 163.71 3.46 128.29 3.46 128.29-0.94 142.74-0.94 142.74-1.93 129.73-1.93 129.73-5.94 142.74-5.94 142.74-7.42 149.26-7.42 149.26-5.94 162.27-5.94 162.27-1.93Z" transform="translate(-3.380000114440918, 36)"></path></g> <!----> <!----> <!----> <!----> <!----> <!----> <!----></g></g> <g data-gra="path-slogan" fill-rule="" class="tp-slogan iconsvg-slogansvg" fill="#fb663c" transform="translate(5,46.22999954223633)"><rect x="0" height="1" y="3.9750003814697266" width="28.665000915527344"></rect> <rect height="1" y="3.9750003814697266" width="28.665000915527344" x="121.66500091552734"></rect> <g transform="translate(31.665000915527344,0)"><g transform="scale(1)"><path d="M2.30-8.58L6.61-1.64L6.61-8.58L7.73-8.58L7.73 0L6.42 0L2.06-6.94L2.02-6.94L2.02 0L0.89 0L0.89-8.58L2.30-8.58ZM9.70-8.58L10.88-8.58L10.88 0L9.70 0L9.70-8.58ZM14.25-8.58L18.56-1.64L18.56-8.58L19.69-8.58L19.69 0L18.38 0L14.02-6.94L13.97-6.94L13.97 0L12.84 0L12.84-8.58L14.25-8.58ZM27.89-3.61L25.27-3.61L25.27-4.59L29.02-4.59L29.02 0L28.27 0L27.98-1.08Q27 0.09 25.17 0.14L25.17 0.14Q23.44 0.14 22.50-0.75L22.50-0.75Q21.09-2.06 21.14-4.36L21.14-4.36Q21.47-8.63 25.22-8.81L25.22-8.81Q28.41-8.63 28.88-6L28.88-6L27.75-6Q27.28-7.78 25.17-7.83L25.17-7.83Q22.50-7.64 22.36-4.31L22.36-4.31Q22.36-0.75 25.22-0.75L25.22-0.75Q26.25-0.75 27-1.31L27-1.31Q27.94-2.06 27.89-3.61L27.89-3.61ZM34.03-7.64L31.97-7.64L31.97-4.97L34.03-4.97Q35.86-4.92 35.81-6.38L35.81-6.38Q35.81-7.64 34.03-7.64L34.03-7.64ZM34.50 0L30.80 0L30.80-8.58L34.59-8.58Q36.89-8.48 36.98-6.42L36.98-6.42Q36.98-5.16 35.86-4.64L35.86-4.64Q37.45-4.08 37.45-2.53L37.45-2.53Q37.31-0.09 34.50 0L34.50 0ZM34.22-3.98L31.97-3.98L31.97-0.98L34.45-0.98Q36.23-1.03 36.28-2.53L36.28-2.53Q36.28-3.98 34.22-3.98L34.22-3.98ZM45.56-4.27L45.56-4.27Q45.38-7.64 42.56-7.83L42.56-7.83Q39.70-7.69 39.56-4.27L39.56-4.27Q39.70-0.94 42.56-0.80L42.56-0.80Q45.38-0.98 45.56-4.27ZM46.73-4.27L46.73-4.27Q46.45 0 42.56 0.14L42.56 0.14Q38.63 0 38.34-4.27L38.34-4.27Q38.58-8.72 42.56-8.81L42.56-8.81Q46.45-8.67 46.73-4.27ZM56.95-3.89L52.73-3.89L52.73 0L51.56 0L51.56-8.58L57.52-8.58L57.52-7.59L52.73-7.59L52.73-4.92L56.95-4.92L56.95-3.89ZM60-1.03L65.16-1.03L65.16 0L58.83 0L58.83-8.58L65.06-8.58L65.06-7.59L60-7.59L60-4.92L64.69-4.92L64.69-3.89L60-3.89L60-1.03ZM66.84-8.58L68.02-8.58L68.02 0L66.84 0L66.84-8.58ZM78.23-8.58L78.23 0L77.11 0L77.11-5.06Q77.11-5.77 77.11-7.22L77.11-7.22L74.67 0L73.50 0L71.11-7.22L71.06-7.22Q71.06-6.70 71.11-5.67L71.11-5.67Q71.11-5.16 71.11-5.06L71.11-5.06L71.11 0L69.94 0L69.94-8.58L71.63-8.58L74.11-1.31L76.55-8.58L78.23-8.58ZM86.72-4.27L86.72-4.27Q86.53-7.64 83.72-7.83L83.72-7.83Q80.86-7.69 80.72-4.27L80.72-4.27Q80.86-0.94 83.72-0.80L83.72-0.80Q86.53-0.98 86.72-4.27ZM87.89-4.27L87.89-4.27Q87.61 0 83.72 0.14L83.72 0.14Q79.78 0 79.50-4.27L79.50-4.27Q79.73-8.72 83.72-8.81L83.72-8.81Q87.61-8.67 87.89-4.27Z" transform="translate(-0.890625, 8.8125)"></path></g></g></g></g></g><defs v-gra="od"></defs></svg>